
<svg width="406px" height="613px" viewBox="0 0 406 613" version="1.1" xmlns="http://www.w3.org/2000/svg" xmlns:xlink="http://www.w3.org/1999/xlink">
    <g id="Landing" stroke="none" stroke-width="1" fill="none" fill-rule="evenodd">
        <g transform="translate(-200.000000, -286.000000)" fill-rule="nonzero" id="undraw_social_notifications_ro8o">
            <g transform="translate(403.000000, 592.500000) scale(-1, 1) translate(-403.000000, -592.500000) translate(200.000000, 286.000000)">
                <path d="M84,448.631127 C85.9104675,447.784348 87.8351822,446.898876 89.7201401,446 L91,447.3395 C89.093741,448.248532 87.1483519,449.143388 85.2162748,450 L84,448.631127 Z"
                      id="Path" fill="#E6E6E6"/>
                <path d="M133,251.165901 L133.723177,250 C134.16288,251.955275 134.592415,253.940251 135,255.900314 L134.262617,257 C133.859482,255.062569 133.434738,253.099518 133,251.165901 Z"
                      id="Path" fill="#E6E6E6"/>
                <ellipse id="Oval" fill="#3F3D56" cx="203" cy="601" rx="203" ry="12"/>
                <path d="M238.038246,250 C238.038246,250 243.707714,324.690273 235.770459,326.988442 C227.833204,329.286611 199.485834,346.522821 154.130082,341.926491 C154.130082,341.926491 109.908208,366.0572 116.711577,343.075571 C123.514946,320.093943 154.130082,325.839354 154.130082,325.839354 C154.130082,325.839354 208.556997,314.348547 210.824763,306.304975 C213.092529,298.261403 204.021401,264.938056 207.423082,263.788975 C210.824763,262.639895 238.038246,250 238.038246,250 Z"
                      id="Path" fill="#A0616A"/>
                <path d="M122.669442,323.569524 L122.669442,323.569524 L138.550777,320.084988 C140.129247,319.738654 141.750335,320.474732 142.45411,321.857352 L158.72199,353.816855 C159.081166,354.52249 159.092851,355.342426 158.753914,356.056989 C158.414977,356.771553 157.760063,357.307705 156.964632,357.521803 L140.824797,361.865991 C139.03703,362.347185 137.149889,361.497367 136.414974,359.880157 L126.034827,337.038381 L125.718592,337.204344 L123.742957,332.876776 L124.071361,332.717727 L121.173899,326.341764 C120.922635,325.788844 120.944576,325.158597 121.233751,324.622563 C121.522925,324.086529 122.049239,323.700493 122.669442,323.569524 L122.669442,323.569524 Z"
                      id="Path" fill="#3F3D56"/>
                <path d="M136.945972,320.481225 L138.662355,320.060724 C139.677924,319.811921 140.720191,320.345058 141.166477,321.341624 L155.867723,354.17001 C156.039006,354.552482 156.044177,354.994933 155.881887,355.381768 C155.719598,355.768603 155.405969,356.061391 155.02294,356.183639 L140.184877,360.919434 C139.318219,361.19605 138.393366,360.740265 138.03602,359.860435 L124.126566,325.614087 C123.944317,325.165365 123.959524,324.65426 124.168087,324.218549 C124.37665,323.782839 124.757102,323.467372 125.206884,323.357188 L126.835137,322.958274 C127.15914,322.878903 127.49318,323.039392 127.649867,323.349711 L127.649867,323.349711 C127.788189,323.623688 128.083111,323.765373 128.369155,323.695268 L136.099082,321.801504 C136.664108,321.66306 137.033117,321.087785 136.945972,320.481225 Z"
                      id="Path" fill="#F38039"/>
                <path d="M173,379.408633 C173,379.408633 177.278725,486.10407 183.864092,502.010828 C189.349468,515.26063 192.550282,558.466966 193.466526,572.531237 C193.650265,575.351559 193.742132,577 193.742132,577 C193.742132,577 211.303098,577 212.400658,572.455204 C213.498218,567.910408 216.790905,517.917621 212.400658,502.010828 C208.010411,486.104034 218,376 218,376 L173,379.408633 Z"
                      id="Path" fill="#2F2E41"/>
                <path d="M197.396192,571.559329 C197.396192,571.559329 185.978183,574.917728 183.694581,579.395607 C181.410979,583.873485 143.731533,591.709727 155.149542,597.307048 C166.567552,602.90437 200.821603,592.829192 200.821603,592.829192 C200.821603,592.829192 219.090425,591.709727 217.948624,584.992914 C216.806823,578.2761 212.648687,570 212.648687,570 L197.396192,571.559329 Z"
                      id="Path" fill="#2F2E41"/>
                <path d="M230.39618,583.559336 C230.39618,583.559336 218.978172,586.917728 216.69457,591.395614 C214.410969,595.873499 176.731519,603.709727 188.149549,609.307048 C199.567579,614.90437 233.821604,604.829192 233.821604,604.829192 C233.821604,604.829192 252.090425,603.709727 250.948624,596.992914 C249.806823,590.2761 245.648688,582 245.648688,582 L230.39618,583.559336 Z"
                      id="Path" fill="#2F2E41"/>
                <path d="M183,377.584412 L198.693372,404.831293 L224.884516,499.563658 C224.884516,499.563658 222.233444,586.477142 225.59631,586.477142 C228.959175,586.477142 246.894464,592.153573 248.01542,586.477142 C248.96231,581.682198 261.517287,535.749685 255.259195,505.177113 C251.18858,485.854616 248.570109,466.247393 247.426292,446.523976 L244.65254,393.478417 C244.65254,393.478417 255.862098,373.043296 243.531585,369.637402 C231.201071,366.231507 183,377.584412 183,377.584412 Z"
                      id="Path" fill="#2F2E41"/>
                <circle id="Oval" fill="#A0616A" cx="194.5" cy="174.5" r="27.5"/>
                <path d="M194,191.436383 C194,191.436383 198.444442,228.543525 197.333332,230.862705 C196.222221,233.181885 224,205.35155 224,205.35155 C224,205.35155 214,189.117181 216.222198,181 L194,191.436383 Z"
                      id="Path" fill="#A0616A"/>
                <path d="M257,229.370089 C257,229.370089 225.727266,206.561679 224.610383,202 L201.155837,222.527563 L197.170402,217.683586 C197.170402,217.683586 178.81818,236.212607 178.81818,244.195553 C178.81818,252.178498 177.701297,276.127313 181.051946,282.969839 C184.402594,289.812364 171,376.484288 171,376.484288 C171,376.484288 182.168828,386.748073 183.285718,387.888492 C184.402608,389.028912 229.077929,381.045974 229.077929,381.045974 C229.077929,381.045974 251.4156,378.765134 251.4156,375.343868 C251.4156,371.922601 244.714296,320.603698 246.948061,306.918654 C249.181827,293.233609 257,229.370089 257,229.370089 Z"
                      id="Path" fill="#D0CDE1"/>
                <path d="M264.038243,259 C264.038243,259 269.707719,333.690276 261.770456,335.988437 C253.833194,338.286598 225.485832,355.522817 180.13008,350.926494 C180.13008,350.926494 135.908214,375.057196 142.711576,352.075574 C149.514938,329.093953 180.13008,334.839356 180.13008,334.839356 C180.13008,334.839356 234.557002,323.348542 236.824761,315.304977 C239.092519,307.261412 230.021392,273.938049 233.42308,272.788969 C236.824768,271.639888 264.038243,259 264.038243,259 Z"
                      id="Path" fill="#A0616A"/>
                <path d="M185.046964,161.22787 C188.779593,159.859493 192.897401,159.156761 196.703252,160.291126 C202.089689,161.896599 205.820267,166.759895 209.843943,170.782669 C213.86762,174.805444 219.510162,178.370051 224.8083,176.47838 C224.488835,174.112997 225.091385,171.71353 226.484269,169.804352 C227.073937,169.004604 227.823284,168.245651 227.972407,167.253251 C228.198763,165.746818 226.968934,164.447529 226.600114,162.971258 C225.953833,160.384182 227.725452,156.842616 225.547279,155.392657 C224.972313,155.009917 224.244342,154.922653 223.683236,154.518704 C221.481059,152.933336 223.926519,148.990291 222.470506,146.66448 C222.034488,146.063895 221.467825,145.576981 220.816015,145.242835 C210.258144,138.897491 197.346718,138.880078 185.124009,139.039907 C183.42246,139.062155 181.053584,139.932622 181.53352,141.614235 C179.223589,139.906377 176.198843,142.304501 174.336945,144.518048 L170.52606,149.048684 C168.735307,151.018913 167.172458,153.196433 165.86884,155.537595 C164.704687,157.830656 164.447314,161.355988 166.764171,162.355686 C165.041684,161.612448 162.952141,172.121493 170.892936,170.392395 C175.506692,169.387803 180.029102,163.067421 185.046964,161.22787 Z"
                      id="Path" fill="#2F2E41"/>
                <path d="M238.101702,230.297478 L256.060304,228 C256.060304,228 274.018906,263.610922 263.917218,269.354617 C253.81553,275.098312 228,279.693275 228,277.395819 C228,275.098363 238.101702,230.297478 238.101702,230.297478 Z"
                      id="Path" fill="#D0CDE1"/>
                <g id="Group-3" transform="translate(285.000000, 357.000000)">
                    <path d="M49.7485809,237 C49.5622177,236.687345 45.1681113,229.154388 43.6447209,213.512022 C42.247428,199.160974 43.1459183,174.971155 55.3647279,141.228359 C78.5129066,77.3048768 50.0301034,25.7278987 49.7390663,25.2141349 L51.1442915,24.3771429 C51.2180414,24.5074132 58.5677247,37.6575207 62.9094978,58.5970576 C68.6463335,86.3584751 66.5573338,115.223645 56.88732,141.809699 C33.7787958,205.624073 50.9587265,235.833253 51.1348123,236.131251 L49.7485809,237 Z" id="Path" fill="#3F3D56"/>
                    <ellipse id="Oval" fill="#F38039" cx="39.1060606" cy="10.8342857" rx="10.7878788" ry="10.8342857"/>
                    <ellipse id="Oval" fill="#F38039" cx="71.469697" cy="51.4628571" rx="10.7878788" ry="10.8342857"/>
                    <ellipse id="Oval" fill="#F38039" cx="49.8939394" cy="77.1942857" rx="10.7878788" ry="10.8342857"/>
                    <ellipse id="Oval" fill="#F38039" cx="78.2121212" cy="98.8628571" rx="10.7878788" ry="10.8342857"/>
                    <ellipse id="Oval" fill="#F38039" cx="40.4545455" cy="136.782857" rx="10.7878788" ry="10.8342857"/>
                    <path d="M55.6374841,235.645714 C55.6374841,235.645714 45.024415,209.333878 76.8636364,189.6 L55.6374841,235.645714 Z" id="Path" fill="#3F3D56"/>
                    <path d="M41.8030303,235.645714 C41.8030303,235.645714 37.0199848,206.961434 0,207.207286 L41.8030303,235.645714 Z" id="Path" fill="#3F3D56"/>
                </g>
                <g id="Group-3" transform="translate(60.500000, 475.500000) scale(-1, 1) translate(-60.500000, -475.500000) translate(16.000000, 357.000000)">
                    <path d="M49.7485809,237 C49.5622177,236.687345 45.1681113,229.154388 43.6447209,213.512022 C42.247428,199.160974 43.1459183,174.971155 55.3647279,141.228359 C78.5129066,77.3048768 50.0301034,25.7278987 49.7390663,25.2141349 L51.1442915,24.3771429 C51.2180414,24.5074132 58.5677247,37.6575207 62.9094978,58.5970576 C68.6463335,86.3584751 66.5573338,115.223645 56.88732,141.809699 C33.7787958,205.624073 50.9587265,235.833253 51.1348123,236.131251 L49.7485809,237 Z" id="Path" fill="#3F3D56"/>
                    <ellipse id="Oval" fill="#F38039" cx="39.1060606" cy="10.8342857" rx="10.7878788" ry="10.8342857"/>
                    <ellipse id="Oval" fill="#F38039" cx="71.469697" cy="51.4628571" rx="10.7878788" ry="10.8342857"/>
                    <ellipse id="Oval" fill="#F38039" cx="49.8939394" cy="77.1942857" rx="10.7878788" ry="10.8342857"/>
                    <ellipse id="Oval" fill="#F38039" cx="78.2121212" cy="98.8628571" rx="10.7878788" ry="10.8342857"/>
                    <ellipse id="Oval" fill="#F38039" cx="40.4545455" cy="136.782857" rx="10.7878788" ry="10.8342857"/>
                    <path d="M55.6374841,235.645714 C55.6374841,235.645714 45.024415,209.333878 76.8636364,189.6 L55.6374841,235.645714 Z" id="Path" fill="#3F3D56"/>
                    <path d="M41.8030303,235.645714 C41.8030303,235.645714 37.0199848,206.961434 0,207.207286 L41.8030303,235.645714 Z" id="Path" fill="#3F3D56"/>
                </g>
                <g id="Group-2" transform="translate(17.000000, 0.000000)">
                    <g id="Group-4" transform="translate(182.332362, 36.000000) scale(-1, 1) translate(-182.332362, -36.000000) translate(155.832362, 0.000000)">
                        <path d="M26.3031267,0 C11.7763109,0 0,11.785774 0,26.324263 C0,40.8627521 11.7763109,52.6485261 26.3031267,52.6485261 C40.8299424,52.6485261 52.6062533,40.8627521 52.6062533,26.324263 C52.6062533,11.785774 40.8299424,0 26.3031267,0 L26.3031267,0 Z M39.3024091,19.6477967 C39.3162502,19.932049 39.3231957,20.2232095 39.3231957,20.5144128 C39.3231957,29.3955433 32.5758963,39.6356484 20.2242821,39.6356484 C16.5799491,39.6435925 13.0123039,38.588333 9.95782347,36.5989288 C10.4888598,36.662756 11.0231972,36.6951627 11.5580488,36.69598 C14.5800644,36.7013759 17.5157977,35.687824 19.8917182,33.8188092 C17.0201746,33.7647089 14.5006507,31.8895629 13.6223964,29.1528905 C14.0374376,29.2366027 14.4598265,29.2784117 14.8832119,29.2776888 C15.4798561,29.2775738 16.0738533,29.1983164 16.6496872,29.0419871 C13.5179086,28.4083746 11.2664012,25.6533613 11.2670794,22.4556636 L11.2670794,22.3724647 C12.199444,22.8969251 13.2459397,23.1849338 14.3151568,23.2113336 C11.3620421,21.2411571 10.4488813,17.3123705 12.22998,14.2400603 C15.6319663,18.4417432 20.6600989,20.9956467 26.0571213,21.2631816 C25.9395231,20.7610231 25.8814008,20.2467555 25.8839543,19.7309956 C25.8807461,16.9741974 27.5626136,14.4959271 30.1243776,13.4826349 C32.6861415,12.4693427 35.6065061,13.1272243 37.4873725,15.1413248 C38.9905009,14.8472869 40.4317347,14.296131 41.7477681,13.5120664 C41.2471969,15.0680991 40.1983248,16.3888654 38.7966711,17.228163 C40.1258393,17.066825 41.4238001,16.7093472 42.6483019,16.1673663 C41.7483491,17.5171403 40.615356,18.6956908 39.3024091,19.6477967 L39.3024091,19.6477967 Z" id="Shape" fill="#3F3D56"/>
                        <ellipse id="Oval" fill="#3F3D56" cx="26.3031267" cy="57.3733938" rx="14.163222"
                                 ry="14.1746032"/>
                        <path d="M23.201547,55.241701 C23.1722217,55.7181028 23.3399184,56.185938 23.6665398,56.5389246 C23.9947496,56.857029 24.4431471,57.0258345 24.903438,57.0045721 C25.3691729,57.0262047 25.8229666,56.8557523 26.1554694,56.5342884 C26.4841058,56.1800001 26.6534563,55.7102654 26.6251546,55.231503 C26.6476083,54.7693465 26.4804227,54.3176797 26.1611247,53.9778844 C25.8369741,53.6586744 25.3914086,53.4880393 24.9331297,53.5076078 C24.4633536,53.4851718 24.0055605,53.6576281 23.6712321,53.9829799 C23.3491247,54.3234775 23.1798529,54.7771132 23.201547,55.241701 L23.201547,55.241701 Z M22.9473854,61.4638991 C22.9075802,62.111913 23.1152667,62.7511889 23.5297438,63.2564456 C23.8916626,63.6738971 24.424489,63.910218 24.9822087,63.9006474 C25.522494,63.9125282 26.0396212,63.6850479 26.3907683,63.2810326 C26.7944392,62.7730829 26.9929606,62.1363102 26.9481705,61.4931222 C26.9780488,60.8959011 26.7753461,60.3099352 26.3813405,59.8545501 C26.0194737,59.4477909 25.4924074,59.2203934 24.9430389,59.2340094 C24.3518974,59.1954181 23.7829251,59.4621128 23.4410998,59.9380144 C23.1194909,60.383918 22.9469419,60.9172018 22.9473854,61.4638991 L22.9473854,61.4638991 Z M22.634717,58.0453107 C21.9952481,57.8004305 21.4519081,57.3612613 21.0837493,56.7916992 C20.7617457,56.2641803 20.5942951,55.6593773 20.5999009,55.0441217 C20.5690856,54.033251 20.9760155,53.0570292 21.7194479,52.3583373 C23.5958589,50.9453061 26.2025809,50.9453061 28.0789919,52.3583373 C28.8278849,53.0541288 29.2389927,54.0313553 29.2088792,55.0441429 C29.2368195,56.3482248 28.4535967,57.5373024 27.2320669,58.0453107 C28.7381717,58.5966229 29.7186665,60.0316131 29.6686767,61.6113786 C29.7374559,62.8376191 29.2698275,64.0342656 28.3837132,64.89956 C27.4975989,65.7648545 26.2775724,66.2162104 25.0312876,66.1398093 C23.8546583,66.1812601 22.7008937,65.8130376 21.7732048,65.0999965 C20.7481078,64.2788531 20.1785101,63.0290974 20.2373201,61.7301086 C20.2301094,60.9713527 20.4293888,60.2245104 20.8144975,59.5670116 C21.2359365,58.877844 21.8752555,58.3433742 22.634717,58.0453107 Z"
                              id="Shape" fill="#3F3D56"/>
                        <ellipse id="Oval" fill="#F38039" cx="26.3031267" cy="57.3733938" rx="14.163222"
                                 ry="14.1746032"/>
                        <path d="M24.8007344,53.9431371 C24.7714092,54.4195389 24.9391058,54.8873741 25.2657272,55.2403607 C25.593937,55.5584652 26.0423345,55.7272706 26.5026254,55.7060082 C26.9683603,55.7276408 27.422154,55.5571884 27.7546569,55.2357246 C28.0832932,54.8814362 28.2526438,54.4117015 28.224342,53.9329391 C28.2467957,53.4707827 28.0796101,53.0191158 27.7603121,52.6793205 C27.4361615,52.3601105 26.990596,52.1894754 26.5323171,52.2090439 C26.0625411,52.186608 25.6047479,52.3590642 25.2704195,52.684416 C24.9483121,53.0249137 24.7790403,53.4785493 24.8007344,53.9431371 L24.8007344,53.9431371 Z M24.5465728,60.1653352 C24.5067676,60.8133491 24.7144541,61.452625 25.1289312,61.9578817 C25.4908501,62.3753333 26.0236764,62.6116541 26.5813961,62.6020835 C27.1216814,62.6139643 27.6388086,62.386484 27.9899557,61.9824687 C28.3936266,61.474519 28.592148,60.8377464 28.5473579,60.1945583 C28.5772363,59.5973372 28.3745336,59.0113713 27.980528,58.5559862 C27.6186611,58.149227 27.0915948,57.9218296 26.5422263,57.9354456 C25.9510848,57.8968542 25.3821125,58.163549 25.0402873,58.6394505 C24.7186783,59.0853542 24.5461293,59.618638 24.5465728,60.1653352 L24.5465728,60.1653352 Z M24.2339045,56.7467468 C23.5944355,56.5018666 23.0510955,56.0626974 22.6829367,55.4931353 C22.3609331,54.9656164 22.1934825,54.3608134 22.1990884,53.7455578 C22.168273,52.7346871 22.575203,51.7584654 23.3186353,51.0597734 C25.1950463,49.6467422 27.8017683,49.6467422 29.6781793,51.0597734 C30.4270723,51.755565 30.8381802,52.7327914 30.8080667,53.745579 C30.8360069,55.049661 30.0527841,56.2387385 28.8312543,56.7467468 C30.3373591,57.2980591 31.3178539,58.7330492 31.2678642,60.3128148 C31.3366433,61.5390552 30.8690149,62.7357017 29.9829006,63.6009962 C29.0967863,64.4662907 27.8767599,64.9176465 26.6304751,64.8412454 C25.4538458,64.8826962 24.3000811,64.5144738 23.3723923,63.8014326 C22.3472953,62.9802892 21.7776975,61.7305335 21.8365075,60.4315447 C21.8292968,59.6727888 22.0285762,58.9259465 22.413685,58.2684477 C22.8351239,57.5792801 23.4744429,57.0448103 24.2339045,56.7467468 Z"
                              id="Shape" fill="#FFFFFF"/>
                    </g>
                    <g id="Group-7" transform="translate(27.211358, 208.500000) scale(-1, 1) translate(-27.211358, -208.500000) translate(0.711358, 171.000000)">
                        <ellipse id="Oval" fill="#3F3D56" cx="26.3031267" cy="26.324263" rx="4.72107402"
                                 ry="4.72486772"/>
                        <path d="M33.3847818,14.8495843 L21.9192722,14.8495843 C18.7570051,14.8588355 16.1957759,17.4221236 16.1865395,20.5869329 L16.1865395,32.0616079 C16.1957759,35.226416 18.7570063,37.789702 21.9192722,37.7989418 L33.3847818,37.7989418 C36.5470138,37.7896376 39.1081939,35.2263821 39.1174704,32.0616079 L39.1174704,20.5869255 C39.1081899,17.4221518 36.5470133,14.8588966 33.3847818,14.8495843 L33.3847818,14.8495843 Z M27.6520123,33.2090732 C24.8696041,33.2090732 22.361168,31.5316488 21.2963844,28.9589732 C20.2316009,26.3862976 20.8201607,23.4250183 22.7876194,21.4559759 C24.7550781,19.4869335 27.713978,18.8978974 30.2845883,19.9635342 C32.8551986,21.029171 34.5312813,23.5396217 34.5312813,26.3242667 C34.530307,30.1262324 31.450924,33.2080909 27.6520123,33.2090732 L27.6520123,33.2090732 Z M35.104531,20.5869329 C34.1546991,20.5869329 33.3847303,19.8163009 33.3847303,18.8657055 C33.3847303,17.91511 34.1547433,17.1445222 35.1045751,17.1445222 C36.054407,17.1445222 36.824381,17.9151542 36.824381,18.8657496 C36.8254886,19.3225833 36.6446468,19.7610262 36.3218704,20.0840525 C35.9990939,20.4070788 35.5609977,20.5880528 35.104531,20.5869329 L35.104531,20.5869329 Z"
                              id="Shape" fill="#3F3D56"/>
                        <g id="Group-5">
                            <path d="M26.3031267,0 C11.7763109,0 0,11.785774 0,26.324263 C0,40.8627521 11.7763109,52.6485261 26.3031267,52.6485261 C40.8299424,52.6485261 52.6062533,40.8627521 52.6062533,26.324263 C52.6062533,11.785774 40.8299424,0 26.3031267,0 Z M39.8883361,31.637595 C39.8758426,35.9208498 36.409483,39.390014 32.1296673,39.4025411 L21.0457288,39.4025411 C16.7659062,39.3900141 13.2995343,35.9208567 13.2870173,31.637595 L13.2870173,20.5448138 C13.2995343,16.261552 16.7659062,12.7923947 21.0457288,12.7798676 L32.1296531,12.7798676 C36.4094687,12.7923948 39.8758284,16.2615589 39.8883361,20.5448138 L39.8883361,31.637595 Z"
                                  id="Shape" fill="#3F3D56"/>
                            <ellipse id="Oval" fill="#3F3D56" cx="26.3031267" cy="60.0733182" rx="14.163222"
                                     ry="14.1746032"/>
                            <path d="M24.6188946,62.3497367 C24.5703504,63.096762 24.7847914,63.8374516 25.2261811,64.4473333 C25.544093,64.8954222 26.0585207,65.1695891 26.6138781,65.1869138 C27.1055142,65.1913851 27.5703029,64.9668273 27.8671196,64.5814233 C28.2533369,63.9932325 28.4297731,63.2954977 28.3686822,62.5979438 C28.4287492,61.8654274 28.2386282,61.1341364 27.8284151,60.5198322 C27.5132892,60.1101981 27.0231359,59.8669883 26.5008153,59.8610886 C25.9784947,59.8551889 25.4827891,60.0872633 25.1581767,60.4896715 C24.7613202,61.0279304 24.570348,61.6866223 24.6188946,62.3497367 L24.6188946,62.3497367 Z M30.7591306,56.2703342 L28.1365557,56.568689 C28.1159541,56.1147854 27.9390952,55.681239 27.6349859,55.3391562 C27.3551539,55.0706687 26.9753106,54.9272102 26.584643,54.9424646 C25.9963043,54.9505997 25.4513531,55.2484089 25.1336727,55.7354025 C24.7382725,56.2647913 24.4891366,57.3661022 24.3862648,59.0393351 C24.9781769,58.2587418 25.9124269,57.801568 26.9026414,57.80795 C28.0243103,57.8038334 29.0894917,58.2914672 29.8083208,59.1381527 C30.6391652,60.0897953 31.0715772,61.316119 31.0181482,62.5692325 C31.0828585,63.8798287 30.6266717,65.1637991 29.746047,66.1496523 C28.8398261,67.0715635 27.5711973,67.5612006 26.2691721,67.4915791 C24.9671469,67.4219576 23.7599974,66.7999364 22.9607908,65.7868331 C22.0416176,64.6468634 21.5820526,62.7775341 21.5820526,60.1788452 C21.5820526,57.5138019 22.0608249,55.5929652 23.0183694,54.4163351 C23.9023627,53.274138 25.2895,52.6176952 26.7488227,52.6509515 C27.7245599,52.6166121 28.6771419,52.9479561 29.4138769,53.5779582 C30.1678344,54.2937342 30.6436871,55.2460955 30.7591378,56.2703342 L30.7591306,56.2703342 Z"
                                  id="Shape" fill="#3F3D56"/>
                            <ellipse id="Oval" fill="#F38039" cx="26.3031267" cy="60.0733182" rx="14.163222"
                                     ry="14.1746032"/>
                            <path d="M24.6188946,62.3497367 C24.5703504,63.096762 24.7847914,63.8374516 25.2261811,64.4473333 C25.544093,64.8954222 26.0585207,65.1695891 26.6138781,65.1869138 C27.1055142,65.1913851 27.5703029,64.9668273 27.8671196,64.5814233 C28.2533369,63.9932325 28.4297731,63.2954977 28.3686822,62.5979438 C28.4287492,61.8654274 28.2386282,61.1341364 27.8284151,60.5198322 C27.5132892,60.1101981 27.0231359,59.8669883 26.5008153,59.8610886 C25.9784947,59.8551889 25.4827891,60.0872633 25.1581767,60.4896715 C24.7613202,61.0279304 24.570348,61.6866223 24.6188946,62.3497367 L24.6188946,62.3497367 Z M30.7591306,56.2703342 L28.1365557,56.568689 C28.1159541,56.1147854 27.9390952,55.681239 27.6349859,55.3391562 C27.3551539,55.0706687 26.9753106,54.9272102 26.584643,54.9424646 C25.9963043,54.9505997 25.4513531,55.2484089 25.1336727,55.7354025 C24.7382725,56.2647913 24.4891366,57.3661022 24.3862648,59.0393351 C24.9781769,58.2587418 25.9124269,57.801568 26.9026414,57.80795 C28.0243103,57.8038334 29.0894917,58.2914672 29.8083208,59.1381527 C30.6391652,60.0897953 31.0715772,61.316119 31.0181482,62.5692325 C31.0828585,63.8798287 30.6266717,65.1637991 29.746047,66.1496523 C28.8398261,67.0715635 27.5711973,67.5612006 26.2691721,67.4915791 C24.9671469,67.4219576 23.7599974,66.7999364 22.9607908,65.7868331 C22.0416176,64.6468634 21.5820526,62.7775341 21.5820526,60.1788452 C21.5820526,57.5138019 22.0608249,55.5929652 23.0183694,54.4163351 C23.9023627,53.274138 25.2895,52.6176952 26.7488227,52.6509515 C27.7245599,52.6166121 28.6771419,52.9479561 29.4138769,53.5779582 C30.1678344,54.2937342 30.6436871,55.2460955 30.7591378,56.2703342 L30.7591306,56.2703342 Z"
                                  id="Shape" fill="#FFFFFF"/>
                        </g>
                    </g>
                    <g id="Group-6" transform="translate(341.500000, 144.000000) scale(-1, 1) translate(-341.500000, -144.000000) translate(315.000000, 108.000000)">
                        <path d="M26.3031267,0 C11.7763109,0 0,11.785774 0,26.324263 C0,40.8627521 11.7763109,52.6485261 26.3031267,52.6485261 C40.8299424,52.6485261 52.6062533,40.8627521 52.6062533,26.324263 C52.6062533,19.3426344 49.835039,12.6469551 44.9022459,7.71019813 C39.9694528,2.77344118 33.2791496,0 26.3031267,0 L26.3031267,0 Z M26.4606255,41.6973481 C24.9714111,41.6960314 23.4900623,41.4812452 22.0617048,41.0595325 C22.7372086,40.0303379 23.262088,38.9097029 23.6203855,37.7316974 C23.814339,37.0383804 24.7149368,33.4609913 24.7149368,33.4609913 C25.5687595,34.7069101 26.9951778,35.4350449 28.5042363,35.395291 C33.491956,35.395291 36.8794291,30.8472268 36.8794291,24.7531741 C36.8794291,20.1496581 32.9793507,15.8581487 27.0564127,15.8581487 C19.6856012,15.8581487 15.9655927,21.147988 15.9655927,25.5573946 C15.9655927,28.233512 16.9770048,30.6045384 19.145271,31.4920005 C19.2974094,31.5725345 19.4790355,31.5746167 19.6329773,31.4975917 C19.7869192,31.4205667 19.8942422,31.2739084 19.9211635,31.1037816 C19.9973573,30.8264306 20.1636286,30.1400646 20.2398152,29.8558693 C20.3619345,29.5494761 20.2723412,29.1992224 20.0181367,28.9892461 C19.3119644,28.1365445 18.9466825,27.0521377 18.9928835,25.9455921 C18.9693027,23.9290211 19.773719,21.9911352 21.2181074,20.5848978 C22.6624958,19.1786605 24.6202634,18.4273208 26.6337996,18.5064976 C30.7972007,18.5064976 33.0901509,21.0509084 33.0901509,24.4549985 C33.0901509,28.9336805 31.1088856,32.7122083 28.1716794,32.7122083 C27.4101753,32.7525827 26.6748474,32.4282326 26.1908473,31.8384715 C25.7068471,31.2487104 25.531829,30.4637907 25.7193821,29.7240487 C26.1835185,27.7550935 27.0910119,25.6335926 27.0910119,24.2123172 C27.0910119,22.9435802 26.4121069,21.8828547 24.9989394,21.8828547 C23.3363401,21.8828547 22.0062763,23.6022417 22.0062763,25.903957 C21.996014,26.748271 22.166062,27.5850405 22.5050405,28.3582677 C22.5050405,28.3582677 20.8078561,35.5616461 20.5099412,36.8234321 C20.2654238,37.9944673 20.1746107,39.1924252 20.239801,40.3869761 C12.967305,37.1894749 9.28629383,29.0079757 11.7146796,21.4388471 C14.1430654,13.8697185 21.8950811,9.36214794 29.6681364,10.9994366 C37.4411918,12.6367253 42.7201136,19.8890861 41.8939753,27.7957065 C41.0678371,35.7023268 34.4039572,41.704815 26.4606113,41.6973481 L26.4606255,41.6973481 Z"
                              id="Shape" fill="#3F3D56"/>
                        <ellipse id="Oval" fill="#3F3D56" cx="33.0475181" cy="57.3733938" rx="14.163222"
                                 ry="14.1746032"/>
                        <path d="M35.0708355,64.7981859 L32.1285777,64.7981859 L32.1285777,54.1153011 C31.0426813,55.089401 29.7443726,55.8229037 28.3264441,56.2633844 L28.3264441,53.6911618 C29.2370473,53.3718529 30.0834676,52.9061625 30.8289313,52.3143232 C31.6727888,51.7120981 32.316396,50.8906798 32.6825488,49.9486017 L35.0708355,49.9486017 L35.0708355,64.7981859 Z"
                              id="Path" fill="#3F3D56"/>
                        <ellipse id="Oval" fill="#F38039" cx="33.0475181" cy="57.3733938" rx="14.163222"
                                 ry="14.1746032"/>
                        <path d="M35.0708355,64.7981859 L32.1285777,64.7981859 L32.1285777,54.1153011 C31.0426813,55.089401 29.7443726,55.8229037 28.3264441,56.2633844 L28.3264441,53.6911618 C29.2370473,53.3718529 30.0834676,52.9061625 30.8289313,52.3143232 C31.6727888,51.7120981 32.316396,50.8906798 32.6825488,49.9486017 L35.0708355,49.9486017 L35.0708355,64.7981859 Z"
                              id="Path" fill="#FFFFFF"/>
                    </g>
                </g>
            </g>
        </g>
    </g>
</svg>