<svg width="20px" height="20px" viewBox="0 0 20 20" version="1.1" xmlns="http://www.w3.org/2000/svg" xmlns:xlink="http://www.w3.org/1999/xlink">
    <g id="Main" stroke="none" stroke-width="1" fill="none" fill-rule="evenodd">
        <g transform="translate(-914.000000, -175.000000)" fill="#F38039" id="posts">
            <g transform="translate(485.000000, 150.000000)">
                <g id="post-1">
                    <g id="Group-7" transform="translate(429.000000, 25.000000)">
                        <path d="M15.97621,12.3180593 L15.97621,17.7733505 C15.97621,17.9271007 15.851629,18.0516817 15.6978788,18.0516817 L2.22664948,18.0516817 C2.072955,18.0516817 1.94831829,17.9271007 1.94831829,17.7733505 L1.94831829,4.30212118 C1.94831829,4.1484267 2.072955,4.02378999 2.22664948,4.02378999 L6.67994844,4.02378999 C6.83364292,4.02378999 6.95827962,3.89915329 6.95827962,3.74545881 L6.95827962,2.35380288 C6.95827962,2.2001084 6.83364292,2.0754717 6.67994844,2.0754717 L1.94831829,2.0754717 L0.278331185,2.0754717 C0.124636705,2.0754717 0,2.2001084 0,2.35380288 L0,4.02378999 L0,18.0516817 L0,19.7216688 C0,19.875419 0.124636705,20 0.278331185,20 L1.94831829,20 L15.97621,20 L17.6461971,20 C17.7999473,20 17.9245283,19.875419 17.9245283,19.7216688 L17.9245283,18.0516817 L17.9245283,12.3180593 C17.9245283,12.1643092 17.7999473,12.0397281 17.6461971,12.0397281 L16.2545412,12.0397281 C16.100791,12.0397281 15.97621,12.1643092 15.97621,12.3180593" id="Fill-1"></path>
                        <path d="M13.6048561,3.47698461 L6.74416191,10.3364826 C6.70633308,10.3743048 6.68036022,10.4222718 6.66933141,10.4745392 L6.04383223,13.440828 C6.0027499,13.6357834 6.1756817,13.8086851 6.37067113,13.7674445 L9.33565742,13.1403452 C9.387934,13.1293183 9.43579905,13.1032949 9.47357274,13.0655829 L16.3343221,6.20602981 C16.4420184,6.09835222 16.4420184,5.92379654 16.3343221,5.81617408 L13.9947798,3.47698461 C13.8870834,3.36930702 13.7125525,3.36930702 13.6048561,3.47698461" id="Fill-3"></path>
                        <path d="M17.8704594,4.44824914 L15.5517511,2.12949318 C15.4450138,2.02281084 15.4450138,1.84977996 15.5517511,1.74304296 L17.2147873,0.0800117549 C17.32147,-0.026670585 17.4945014,-0.026670585 17.6012387,0.0800117549 L19.919947,2.39876772 C20.0266843,2.50550471 20.0266843,2.67848094 19.919947,2.78521793 L18.2569108,4.44824914 C18.1502281,4.55498613 17.9771967,4.55498613 17.8704594,4.44824914" id="Fill-5"></path>
                    </g>
                </g>
            </g>
        </g>
    </g>
</svg>